<svg xmlns="http://www.w3.org/2000/svg" viewBox="0 0 32 32" width="32" height="32">
  <!-- 碗 -->
  <ellipse cx="16" cy="24" rx="13" ry="6" fill="#8b5cf6" opacity="0.3"/>
  <ellipse cx="16" cy="22" rx="12" ry="5" fill="#ffffff" stroke="#64748b" stroke-width="1"/>
  
  <!-- 湯汁 -->
  <ellipse cx="16" cy="21" rx="10" ry="4" fill="#f59e0b" opacity="0.8"/>
  
  <!-- 拉麵條 -->
  <path d="M8 20 Q10 18 12 20 Q14 22 16 20 Q18 18 20 20 Q22 22 24 20" stroke="#fbbf24" stroke-width="1.5" fill="none"/>
  <path d="M9 21 Q11 19 13 21 Q15 23 17 21 Q19 19 21 21 Q23 23 24 21" stroke="#fbbf24" stroke-width="1.5" fill="none"/>
  <path d="M8 22 Q12 19 16 22 Q20 25 24 22" stroke="#fbbf24" stroke-width="1.5" fill="none"/>
  
  <!-- 配菜 - 蛋 -->
  <ellipse cx="13" cy="19" rx="2" ry="1.5" fill="#fef3c7"/>
  <ellipse cx="13" cy="19" rx="1" ry="0.8" fill="#f59e0b"/>
  
  <!-- 配菜 - 海苔 -->
  <rect x="18" y="18" width="3" height="2" rx="0.5" fill="#1f2937"/>
  
  <!-- 配菜 - 蔥花 -->
  <circle cx="11" cy="21" r="0.5" fill="#10b981"/>
  <circle cx="19" cy="20" r="0.5" fill="#10b981"/>
  <circle cx="15" cy="22" r="0.5" fill="#10b981"/>
  
  <!-- 蒸氣 -->
  <path d="M12 15 Q12 13 13 13 Q13 15 14 15 Q14 13 15 13" stroke="#9ca3af" stroke-width="0.8" fill="none"/>
  <path d="M17 14 Q17 12 18 12 Q18 14 19 14 Q19 12 20 12" stroke="#9ca3af" stroke-width="0.8" fill="none"/>
  
  <!-- 筷子 -->
  <line x1="25" y1="10" x2="22" y2="18" stroke="#d97706" stroke-width="1"/>
  <line x1="26" y1="9" x2="23" y2="17" stroke="#d97706" stroke-width="1"/>
</svg>